<svg xmlns="http://www.w3.org/2000/svg" width="568.391" height="71.271" viewBox="0 0 568.391 71.271">
  <path id="Path_1" data-name="Path 1" d="M66.976-50.4V16.111H54.339L21.178-24.271V16.111H5.976V-50.4H18.708L51.773-10.019V-50.4Zm35.346,14.632q11.877,0,18.243,5.653t6.366,17.055v29.17H113.058V9.745q-4.181,7.126-15.583,7.126a24.184,24.184,0,0,1-10.214-2,15.231,15.231,0,0,1-6.6-5.511,14.343,14.343,0,0,1-2.28-7.981A13.319,13.319,0,0,1,83.746-9.828q5.368-4.086,16.58-4.086h11.782q0-4.846-2.945-7.459t-8.836-2.613A25.8,25.8,0,0,0,92.3-22.7a21.241,21.241,0,0,0-6.7,3.468L80.278-29.592A32.1,32.1,0,0,1,90.3-34.152,44.9,44.9,0,0,1,102.321-35.768Zm-1.14,42.662a12.909,12.909,0,0,0,6.746-1.758,9.618,9.618,0,0,0,4.181-5.178V-5.268H101.941q-9.121,0-9.121,5.986a5.331,5.331,0,0,0,2.233,4.513A10.058,10.058,0,0,0,101.181,6.894ZM173.3,13.64a15.236,15.236,0,0,1-5.368,2.423,27.142,27.142,0,0,1-6.7.808q-9.121,0-14.11-4.656T142.133-1.467v-21h-7.886v-11.4h7.886V-46.314h14.822v12.447h12.732v11.4H156.955V-1.657a6.978,6.978,0,0,0,1.663,4.988,6.163,6.163,0,0,0,4.7,1.758,9.526,9.526,0,0,0,5.986-1.9Zm56.819-22.9q0,.285-.285,3.991H191.161A12.044,12.044,0,0,0,196.1,2.238a16.365,16.365,0,0,0,9.692,2.755,19.625,19.625,0,0,0,7.079-1.188A17.145,17.145,0,0,0,218.62.053L226.506,8.6q-7.221,8.266-21.093,8.266a33.368,33.368,0,0,1-15.3-3.373,24.726,24.726,0,0,1-10.262-9.359,25.787,25.787,0,0,1-3.611-13.587,26.122,26.122,0,0,1,3.563-13.54,24.962,24.962,0,0,1,9.787-9.407,28.734,28.734,0,0,1,13.92-3.373A28.5,28.5,0,0,1,217.1-32.537a23.579,23.579,0,0,1,9.549,9.264A27.624,27.624,0,0,1,230.117-9.258Zm-26.509-15.3a12.765,12.765,0,0,0-8.456,2.85,12.134,12.134,0,0,0-4.181,7.791H216.15a12.255,12.255,0,0,0-4.181-7.744A12.5,12.5,0,0,0,203.608-24.556Zm79.718-13.492V-20.47h30.785V-8.118H283.326V16.111H267.933V-50.4H318.2v12.352ZM350.6,16.871a30.652,30.652,0,0,1-14.49-3.373,25.075,25.075,0,0,1-10.024-9.359,25.787,25.787,0,0,1-3.611-13.587,25.787,25.787,0,0,1,3.611-13.587,25.075,25.075,0,0,1,10.024-9.359,30.653,30.653,0,0,1,14.49-3.373,30.37,30.37,0,0,1,14.442,3.373,25.153,25.153,0,0,1,9.977,9.359,25.787,25.787,0,0,1,3.611,13.587,25.787,25.787,0,0,1-3.611,13.587,25.153,25.153,0,0,1-9.977,9.359A30.37,30.37,0,0,1,350.6,16.871Zm0-12.162A12.346,12.346,0,0,0,359.955.861q3.658-3.848,3.658-10.309t-3.658-10.309a12.346,12.346,0,0,0-9.359-3.848,12.5,12.5,0,0,0-9.406,3.848q-3.706,3.848-3.706,10.309T341.19.861A12.5,12.5,0,0,0,350.6,4.709Zm55.109,12.162A49.657,49.657,0,0,1,393.258,15.3a32.52,32.52,0,0,1-9.692-3.943L388.507.718a31.1,31.1,0,0,0,8.266,3.563,34.646,34.646,0,0,0,9.5,1.378q9.406,0,9.406-4.656,0-2.185-2.565-3.136a38,38,0,0,0-7.886-1.615,76.079,76.079,0,0,1-10.357-2.185,16.068,16.068,0,0,1-7.079-4.371q-2.993-3.136-2.993-8.931a13.991,13.991,0,0,1,2.8-8.6,18.04,18.04,0,0,1,8.171-5.843,34.9,34.9,0,0,1,12.685-2.09,49.783,49.783,0,0,1,10.784,1.188,30.144,30.144,0,0,1,8.884,3.278l-4.941,10.547a29.5,29.5,0,0,0-14.727-3.8q-4.751,0-7.126,1.33a3.911,3.911,0,0,0-2.375,3.421,3.4,3.4,0,0,0,2.565,3.326,45.415,45.415,0,0,0,8.171,1.805,87.466,87.466,0,0,1,10.262,2.233,15.416,15.416,0,0,1,6.936,4.323q2.946,3.136,2.945,8.741a13.5,13.5,0,0,1-2.85,8.456,18.2,18.2,0,0,1-8.314,5.748A37.04,37.04,0,0,1,405.705,16.871Zm66.226-3.231a15.236,15.236,0,0,1-5.368,2.423,27.142,27.142,0,0,1-6.7.808q-9.121,0-14.11-4.656T440.766-1.467v-21H432.88v-11.4h7.886V-46.314h14.822v12.447H468.32v11.4H455.588V-1.657a6.978,6.978,0,0,0,1.663,4.988,6.163,6.163,0,0,0,4.7,1.758,9.526,9.526,0,0,0,5.986-1.9Zm56.819-22.9q0,.285-.285,3.991H489.794a12.044,12.044,0,0,0,4.941,7.506,16.365,16.365,0,0,0,9.692,2.755A19.624,19.624,0,0,0,511.5,3.806,17.146,17.146,0,0,0,517.253.053L525.139,8.6q-7.221,8.266-21.093,8.266a33.368,33.368,0,0,1-15.3-3.373,24.726,24.726,0,0,1-10.262-9.359,25.787,25.787,0,0,1-3.611-13.587,26.122,26.122,0,0,1,3.563-13.54,24.962,24.962,0,0,1,9.787-9.407,28.734,28.734,0,0,1,13.92-3.373,28.5,28.5,0,0,1,13.587,3.231,23.579,23.579,0,0,1,9.549,9.264A27.625,27.625,0,0,1,528.75-9.258Zm-26.509-15.3a12.765,12.765,0,0,0-8.456,2.85,12.134,12.134,0,0,0-4.181,7.791h25.179a12.256,12.256,0,0,0-4.181-7.744A12.5,12.5,0,0,0,502.241-24.556Zm50.548-3.706a16.483,16.483,0,0,1,7.174-5.606,26.625,26.625,0,0,1,10.4-1.9v13.682q-2.47-.19-3.326-.19-6.366,0-9.977,3.563T553.454-8.023V16.111H538.632V-35.008h14.157Z" transform="translate(-3.976 52.4)" fill="none" stroke="#cd26ff" stroke-linecap="round" stroke-linejoin="round" stroke-width="4"/>
</svg>
